<?xml version="1.0" encoding="UTF-8"?>
<svg xmlns="http://www.w3.org/2000/svg" xmlns:xlink="http://www.w3.org/1999/xlink" width="50px" height="50px" viewBox="0 0 50 50" version="1.1">
<g id="surface1">
<path style=" stroke:none;fill-rule:nonzero;fill:rgb(45.098039%,81.568627%,95.686275%);fill-opacity:1;" d="M 10.113281 16.511719 L 46.101562 16.511719 L 46.910156 12.445312 L 9.324219 12.445312 Z M 10.113281 16.511719 "/>
<path style=" stroke:none;fill-rule:nonzero;fill:rgb(23.921569%,40.784314%,53.72549%);fill-opacity:1;" d="M 49.683594 10.167969 C 49.417969 9.847656 49.023438 9.660156 48.605469 9.660156 L 8.785156 9.660156 L 7.464844 2.839844 C 7.335938 2.1875 6.765625 1.714844 6.097656 1.714844 L 1.394531 1.714844 C 0.625 1.714844 0 2.335938 0 3.105469 C 0 3.875 0.625 4.5 1.394531 4.5 L 4.949219 4.5 L 10.945312 35.898438 C 11.066406 36.5625 11.644531 37.050781 12.320312 37.050781 L 17.242188 37.050781 C 14.597656 37.527344 12.589844 39.84375 12.589844 42.621094 C 12.589844 45.746094 15.128906 48.285156 18.253906 48.285156 C 21.375 48.285156 23.917969 45.746094 23.917969 42.621094 C 23.917969 39.84375 21.90625 37.527344 19.265625 37.050781 L 37.359375 37.050781 C 34.71875 37.527344 32.707031 39.84375 32.707031 42.621094 C 32.707031 45.746094 35.25 48.285156 38.371094 48.285156 C 41.496094 48.285156 44.039062 45.746094 44.039062 42.621094 C 44.039062 39.84375 42.027344 37.527344 39.386719 37.050781 L 43.628906 37.050781 C 44.398438 37.050781 45.019531 36.425781 45.019531 35.65625 C 45.019531 34.886719 44.398438 34.261719 43.628906 34.261719 L 13.488281 34.261719 L 13.0625 31.835938 L 44.757812 31.835938 C 45.425781 31.835938 45.996094 31.363281 46.125 30.710938 L 49.972656 11.324219 C 50.054688 10.914062 49.949219 10.492188 49.683594 10.167969 Z M 41.25 42.621094 C 41.25 44.207031 39.960938 45.5 38.375 45.5 C 36.785156 45.5 35.496094 44.207031 35.496094 42.621094 C 35.496094 41.035156 36.785156 39.742188 38.375 39.742188 C 39.960938 39.742188 41.25 41.035156 41.25 42.621094 Z M 21.132812 42.621094 C 21.132812 44.207031 19.839844 45.5 18.253906 45.5 C 16.664062 45.5 15.375 44.207031 15.375 42.621094 C 15.375 41.035156 16.664062 39.742188 18.253906 39.742188 C 19.839844 39.742188 21.132812 41.035156 21.132812 42.621094 Z M 12.542969 29.046875 L 10.65625 19.296875 L 15.914062 19.296875 L 17.515625 29.046875 Z M 26.722656 29.046875 L 20.339844 29.046875 L 18.738281 19.296875 L 26.722656 19.296875 Z M 35.996094 29.046875 L 29.511719 29.046875 L 29.511719 19.296875 L 37.394531 19.296875 Z M 43.617188 29.046875 L 38.8125 29.046875 L 40.210938 19.296875 L 45.550781 19.296875 Z M 46.101562 16.511719 L 10.113281 16.511719 L 9.324219 12.445312 L 46.910156 12.445312 Z M 46.101562 16.511719 "/>
</g>
</svg>
